<svg width="100" height="100" viewBox="0 0 100 100" fill="none" xmlns="http://www.w3.org/2000/svg">
<g clip-path="url(#clip0_19_2)">
<rect width="100" height="100" rx="50" fill="#EFDECD"/>
<path d="M41.4 75.4C40.8667 75.4 40.2667 75.1667 39.6 74.7C38.9333 74.3 38.3667 73.8333 37.9 73.3C37.5 72.7 37.3 72.1667 37.3 71.7C37.3 70.5667 37.4333 69.6 37.7 68.8C38.0333 68 38.3667 67.1 38.7 66.1L48.2 39.4C48.3333 38.9333 48.2667 38.6333 48 38.5C47.8 38.3 47.5333 38.2 47.2 38.2L43.2 38C42.3333 37.9333 41.8 37.7667 41.6 37.5C41.4667 37.1667 41.4 36.8667 41.4 36.6C41.4 36.4667 41.5667 36.2333 41.9 35.9C42.2333 35.5 42.6333 35.1333 43.1 34.8C43.6333 34.4 44.2 34.2 44.8 34.2H48.4C49.1333 34.2 49.6333 34.1 49.9 33.9C50.1667 33.6333 50.4667 33.1333 50.8 32.4L53.2 27.5C53.4667 26.9667 53.9667 26.3667 54.7 25.7C55.4333 24.9667 56.1667 24.3333 56.9 23.8C57.7 23.2667 58.2667 23 58.6 23C59.1333 23 59.4667 23.3667 59.6 24.1C59.7333 24.8333 59.6667 25.5333 59.4 26.2L56.8 32.9C56.6667 33.3667 56.7 33.6667 56.9 33.8C57.1667 33.9333 57.5667 34 58.1 34C59.4333 34 60.8 34.1 62.2 34.3C63.6 34.5 64.7333 34.6667 65.6 34.8C66.6667 35 67.3 35.2333 67.5 35.5C67.7667 35.7 67.9 35.9667 67.9 36.3C67.9 36.4333 67.7667 36.6667 67.5 37C67.2333 37.2667 66.7333 37.4333 66 37.5C64.5333 37.5667 63.1333 37.6667 61.8 37.8C60.4667 37.8667 59.0667 37.9333 57.6 38C56.5333 38.0667 55.7667 38.2333 55.3 38.5C54.9 38.7667 54.6333 39.1 54.5 39.5L45.6 64.1C45.3333 64.9 45.2 65.6 45.2 66.2C45.2 66.8 45.3667 67.2667 45.7 67.6C46.1 67.9333 46.6667 68.1 47.4 68.1C48.3333 68.1 49.3333 67.7667 50.4 67.1C51.4667 66.4333 52.5 65.6667 53.5 64.8C54.5 63.9333 55.3333 63.1667 56 62.5C56.7333 61.7667 57.3667 61.4333 57.9 61.5C58.4333 61.5667 58.7 61.8 58.7 62.2C58.7 62.6667 58.5333 63.2 58.2 63.8C57.8667 64.3333 57.4333 64.9 56.9 65.5C55.8333 66.6333 54.7 67.7 53.5 68.7C52.3667 69.7 51.1667 70.6333 49.9 71.5C48.7 72.3 47.5333 73 46.4 73.6C45.3333 74.1333 44.3667 74.5667 43.5 74.9C42.6333 75.2333 41.9333 75.4 41.4 75.4Z" fill="black"/>
</g>
<defs>
<clipPath id="clip0_19_2">
<rect width="100" height="100" rx="50" fill="white"/>
</clipPath>
</defs>
</svg>
